# xmcd
#
# Track frame offsets:
#	150
#	11198
#	21162
#	34018
#	46156
#	57202
#	67234
#	75932
#	88910
#	102667
#	112927
#	125364
#	134102
#	146525
#	158937
#	169633
#	179306
#	190245
#	203852
#	214833
#	225959
#	238049
#	246851
#	256654
#
# Disc length: 3550 seconds
#
# Revision: 0
# Processed by: cddbd v1.4PL0 Copyright (c) Steve Scherf et al.
# Submitted via: dBpowerAMP V4.0
#
DISCID=4e0ddc18
DTITLE=Fats Domino - The Paramount Years
DYEAR=1996
DGENRE=R&B
TTITLE0=When My Dreamboat Comes Home
TTITLE1=Wigs
TTITLE2=Trouble In Mind (Version 2)
TTITLE3=ManThat's All
TTITLE4=Kansas City
TTITLE5=Reelin' and Rockin'
TTITLE6=Slowboat To China
TTITLE7=Monkey Business
TTITLE8=Heartbreak Hill
TTITLE9=(I Met) The Girl I'm Gonna Marry
TTITLE10=Why Don't You Do Right
TTITLE11=Ballin' The Jack
TTITLE12=Lazy Lady
TTITLE13=Goodnight Sweetheart
TTITLE14=Let Me Call You Sweetheart
TTITLE15=That Certain Someone
TTITLE16=Nobody Needs You Like Me
TTITLE17=Who Cares
TTITLE18=Something You Got Baby
TTITLE19=If You Don't Know What Love Is
TTITLE20=Packin' Up
TTITLE21=(All Of My Life) For You
TTITLE22=Sally Was A Good Old Girl
TTITLE23=A Whole Lot Of Trouble
EXTD=CD 2 of 3 CD set (Subtitled The Most Wanted)
EXTT0=
EXTT1=
EXTT2=
EXTT3=
EXTT4=
EXTT5=
EXTT6=
EXTT7=
EXTT8=
EXTT9=
EXTT10=
EXTT11=
EXTT12=
EXTT13=
EXTT14=
EXTT15=
EXTT16=
EXTT17=
EXTT18=
EXTT19=
EXTT20=
EXTT21=
EXTT22=
EXTT23=
PLAYORDER=
